<svg version="1.0" xmlns="http://www.w3.org/2000/svg" xmlns:xlink="http://www.w3.org/1999/xlink"
	 viewBox="0 0 100 100" enable-background="new 0 0 100 100" xml:space="preserve">
	
<svg xmlns="http://www.w3.org/2000/svg" xmlns:xlink="http://www.w3.org/1999/xlink" version="1.1" width="100" height="100" viewBox="0 0 2000 2000" x="0" y="0" shape-rendering="crispEdges"><defs/><rect x="0" y="0" width="2000" height="2000" fill="#093132"/><rect x="776" y="200" width="64" height="64" fill="#ffffff"/><rect x="1096" y="200" width="64" height="64" fill="#ffffff"/><rect x="1224" y="200" width="64" height="64" fill="#ffffff"/><rect x="712" y="264" width="64" height="64" fill="#ffffff"/><rect x="776" y="264" width="64" height="64" fill="#ffffff"/><rect x="904" y="264" width="64" height="64" fill="#ffffff"/><rect x="968" y="264" width="64" height="64" fill="#ffffff"/><rect x="1032" y="264" width="64" height="64" fill="#ffffff"/><rect x="1096" y="264" width="64" height="64" fill="#ffffff"/><rect x="776" y="328" width="64" height="64" fill="#ffffff"/><rect x="840" y="328" width="64" height="64" fill="#ffffff"/><rect x="904" y="328" width="64" height="64" fill="#ffffff"/><rect x="712" y="392" width="64" height="64" fill="#ffffff"/><rect x="776" y="392" width="64" height="64" fill="#ffffff"/><rect x="904" y="392" width="64" height="64" fill="#ffffff"/><rect x="1032" y="392" width="64" height="64" fill="#ffffff"/><rect x="1160" y="392" width="64" height="64" fill="#ffffff"/><rect x="1224" y="392" width="64" height="64" fill="#ffffff"/><rect x="840" y="456" width="64" height="64" fill="#ffffff"/><rect x="968" y="456" width="64" height="64" fill="#ffffff"/><rect x="1160" y="456" width="64" height="64" fill="#ffffff"/><rect x="1224" y="456" width="64" height="64" fill="#ffffff"/><rect x="712" y="520" width="64" height="64" fill="#ffffff"/><rect x="840" y="520" width="64" height="64" fill="#ffffff"/><rect x="1032" y="520" width="64" height="64" fill="#ffffff"/><rect x="1096" y="520" width="64" height="64" fill="#ffffff"/><rect x="1160" y="520" width="64" height="64" fill="#ffffff"/><rect x="712" y="584" width="64" height="64" fill="#ffffff"/><rect x="840" y="584" width="64" height="64" fill="#ffffff"/><rect x="968" y="584" width="64" height="64" fill="#ffffff"/><rect x="1096" y="584" width="64" height="64" fill="#ffffff"/><rect x="1224" y="584" width="64" height="64" fill="#ffffff"/><rect x="968" y="648" width="64" height="64" fill="#ffffff"/><rect x="1224" y="648" width="64" height="64" fill="#ffffff"/><rect x="200" y="712" width="64" height="64" fill="#ffffff"/><rect x="264" y="712" width="64" height="64" fill="#ffffff"/><rect x="328" y="712" width="64" height="64" fill="#ffffff"/><rect x="392" y="712" width="64" height="64" fill="#ffffff"/><rect x="456" y="712" width="64" height="64" fill="#ffffff"/><rect x="584" y="712" width="64" height="64" fill="#ffffff"/><rect x="648" y="712" width="64" height="64" fill="#ffffff"/><rect x="712" y="712" width="64" height="64" fill="#ffffff"/><rect x="776" y="712" width="64" height="64" fill="#ffffff"/><rect x="840" y="712" width="64" height="64" fill="#ffffff"/><rect x="968" y="712" width="64" height="64" fill="#ffffff"/><rect x="1032" y="712" width="64" height="64" fill="#ffffff"/><rect x="1160" y="712" width="64" height="64" fill="#ffffff"/><rect x="1288" y="712" width="64" height="64" fill="#ffffff"/><rect x="1416" y="712" width="64" height="64" fill="#ffffff"/><rect x="1544" y="712" width="64" height="64" fill="#ffffff"/><rect x="1672" y="712" width="64" height="64" fill="#ffffff"/><rect x="328" y="776" width="64" height="64" fill="#ffffff"/><rect x="392" y="776" width="64" height="64" fill="#ffffff"/><rect x="520" y="776" width="64" height="64" fill="#ffffff"/><rect x="776" y="776" width="64" height="64" fill="#ffffff"/><rect x="1096" y="776" width="64" height="64" fill="#ffffff"/><rect x="1160" y="776" width="64" height="64" fill="#ffffff"/><rect x="1224" y="776" width="64" height="64" fill="#ffffff"/><rect x="1288" y="776" width="64" height="64" fill="#ffffff"/><rect x="1416" y="776" width="64" height="64" fill="#ffffff"/><rect x="1480" y="776" width="64" height="64" fill="#ffffff"/><rect x="1736" y="776" width="64" height="64" fill="#ffffff"/><rect x="264" y="840" width="64" height="64" fill="#ffffff"/><rect x="392" y="840" width="64" height="64" fill="#ffffff"/><rect x="520" y="840" width="64" height="64" fill="#ffffff"/><rect x="584" y="840" width="64" height="64" fill="#ffffff"/><rect x="648" y="840" width="64" height="64" fill="#ffffff"/><rect x="776" y="840" width="64" height="64" fill="#ffffff"/><rect x="904" y="840" width="64" height="64" fill="#ffffff"/><rect x="968" y="840" width="64" height="64" fill="#ffffff"/><rect x="1096" y="840" width="64" height="64" fill="#ffffff"/><rect x="1160" y="840" width="64" height="64" fill="#ffffff"/><rect x="1288" y="840" width="64" height="64" fill="#ffffff"/><rect x="1352" y="840" width="64" height="64" fill="#ffffff"/><rect x="1480" y="840" width="64" height="64" fill="#ffffff"/><rect x="1608" y="840" width="64" height="64" fill="#ffffff"/><rect x="200" y="904" width="64" height="64" fill="#ffffff"/><rect x="520" y="904" width="64" height="64" fill="#ffffff"/><rect x="648" y="904" width="64" height="64" fill="#ffffff"/><rect x="712" y="904" width="64" height="64" fill="#ffffff"/><rect x="776" y="904" width="64" height="64" fill="#ffffff"/><rect x="840" y="904" width="64" height="64" fill="#ffffff"/><rect x="904" y="904" width="64" height="64" fill="#ffffff"/><rect x="1032" y="904" width="64" height="64" fill="#ffffff"/><rect x="1224" y="904" width="64" height="64" fill="#ffffff"/><rect x="1288" y="904" width="64" height="64" fill="#ffffff"/><rect x="200" y="968" width="64" height="64" fill="#ffffff"/><rect x="456" y="968" width="64" height="64" fill="#ffffff"/><rect x="584" y="968" width="64" height="64" fill="#ffffff"/><rect x="776" y="968" width="64" height="64" fill="#ffffff"/><rect x="904" y="968" width="64" height="64" fill="#ffffff"/><rect x="1032" y="968" width="64" height="64" fill="#ffffff"/><rect x="1160" y="968" width="64" height="64" fill="#ffffff"/><rect x="1352" y="968" width="64" height="64" fill="#ffffff"/><rect x="1416" y="968" width="64" height="64" fill="#ffffff"/><rect x="1480" y="968" width="64" height="64" fill="#ffffff"/><rect x="1544" y="968" width="64" height="64" fill="#ffffff"/><rect x="1672" y="968" width="64" height="64" fill="#ffffff"/><rect x="1736" y="968" width="64" height="64" fill="#ffffff"/><rect x="200" y="1032" width="64" height="64" fill="#ffffff"/><rect x="328" y="1032" width="64" height="64" fill="#ffffff"/><rect x="776" y="1032" width="64" height="64" fill="#ffffff"/><rect x="840" y="1032" width="64" height="64" fill="#ffffff"/><rect x="968" y="1032" width="64" height="64" fill="#ffffff"/><rect x="1096" y="1032" width="64" height="64" fill="#ffffff"/><rect x="1224" y="1032" width="64" height="64" fill="#ffffff"/><rect x="1288" y="1032" width="64" height="64" fill="#ffffff"/><rect x="1352" y="1032" width="64" height="64" fill="#ffffff"/><rect x="1416" y="1032" width="64" height="64" fill="#ffffff"/><rect x="1480" y="1032" width="64" height="64" fill="#ffffff"/><rect x="200" y="1096" width="64" height="64" fill="#ffffff"/><rect x="328" y="1096" width="64" height="64" fill="#ffffff"/><rect x="392" y="1096" width="64" height="64" fill="#ffffff"/><rect x="456" y="1096" width="64" height="64" fill="#ffffff"/><rect x="520" y="1096" width="64" height="64" fill="#ffffff"/><rect x="584" y="1096" width="64" height="64" fill="#ffffff"/><rect x="840" y="1096" width="64" height="64" fill="#ffffff"/><rect x="1032" y="1096" width="64" height="64" fill="#ffffff"/><rect x="1096" y="1096" width="64" height="64" fill="#ffffff"/><rect x="1288" y="1096" width="64" height="64" fill="#ffffff"/><rect x="1352" y="1096" width="64" height="64" fill="#ffffff"/><rect x="1480" y="1096" width="64" height="64" fill="#ffffff"/><rect x="1608" y="1096" width="64" height="64" fill="#ffffff"/><rect x="1672" y="1096" width="64" height="64" fill="#ffffff"/><rect x="1736" y="1096" width="64" height="64" fill="#ffffff"/><rect x="200" y="1160" width="64" height="64" fill="#ffffff"/><rect x="456" y="1160" width="64" height="64" fill="#ffffff"/><rect x="520" y="1160" width="64" height="64" fill="#ffffff"/><rect x="712" y="1160" width="64" height="64" fill="#ffffff"/><rect x="840" y="1160" width="64" height="64" fill="#ffffff"/><rect x="968" y="1160" width="64" height="64" fill="#ffffff"/><rect x="1096" y="1160" width="64" height="64" fill="#ffffff"/><rect x="1288" y="1160" width="64" height="64" fill="#ffffff"/><rect x="1672" y="1160" width="64" height="64" fill="#ffffff"/><rect x="1736" y="1160" width="64" height="64" fill="#ffffff"/><rect x="200" y="1224" width="64" height="64" fill="#ffffff"/><rect x="328" y="1224" width="64" height="64" fill="#ffffff"/><rect x="456" y="1224" width="64" height="64" fill="#ffffff"/><rect x="520" y="1224" width="64" height="64" fill="#ffffff"/><rect x="584" y="1224" width="64" height="64" fill="#ffffff"/><rect x="712" y="1224" width="64" height="64" fill="#ffffff"/><rect x="776" y="1224" width="64" height="64" fill="#ffffff"/><rect x="968" y="1224" width="64" height="64" fill="#ffffff"/><rect x="1096" y="1224" width="64" height="64" fill="#ffffff"/><rect x="1160" y="1224" width="64" height="64" fill="#ffffff"/><rect x="1224" y="1224" width="64" height="64" fill="#ffffff"/><rect x="1288" y="1224" width="64" height="64" fill="#ffffff"/><rect x="1352" y="1224" width="64" height="64" fill="#ffffff"/><rect x="1416" y="1224" width="64" height="64" fill="#ffffff"/><rect x="1480" y="1224" width="64" height="64" fill="#ffffff"/><rect x="1544" y="1224" width="64" height="64" fill="#ffffff"/><rect x="1736" y="1224" width="64" height="64" fill="#ffffff"/><rect x="712" y="1288" width="64" height="64" fill="#ffffff"/><rect x="1224" y="1288" width="64" height="64" fill="#ffffff"/><rect x="1480" y="1288" width="64" height="64" fill="#ffffff"/><rect x="1736" y="1288" width="64" height="64" fill="#ffffff"/><rect x="712" y="1352" width="64" height="64" fill="#ffffff"/><rect x="904" y="1352" width="64" height="64" fill="#ffffff"/><rect x="968" y="1352" width="64" height="64" fill="#ffffff"/><rect x="1096" y="1352" width="64" height="64" fill="#ffffff"/><rect x="1224" y="1352" width="64" height="64" fill="#ffffff"/><rect x="1352" y="1352" width="64" height="64" fill="#ffffff"/><rect x="1480" y="1352" width="64" height="64" fill="#ffffff"/><rect x="1608" y="1352" width="64" height="64" fill="#ffffff"/><rect x="1672" y="1352" width="64" height="64" fill="#ffffff"/><rect x="1736" y="1352" width="64" height="64" fill="#ffffff"/><rect x="904" y="1416" width="64" height="64" fill="#ffffff"/><rect x="1032" y="1416" width="64" height="64" fill="#ffffff"/><rect x="1096" y="1416" width="64" height="64" fill="#ffffff"/><rect x="1224" y="1416" width="64" height="64" fill="#ffffff"/><rect x="1480" y="1416" width="64" height="64" fill="#ffffff"/><rect x="1544" y="1416" width="64" height="64" fill="#ffffff"/><rect x="712" y="1480" width="64" height="64" fill="#ffffff"/><rect x="776" y="1480" width="64" height="64" fill="#ffffff"/><rect x="840" y="1480" width="64" height="64" fill="#ffffff"/><rect x="904" y="1480" width="64" height="64" fill="#ffffff"/><rect x="968" y="1480" width="64" height="64" fill="#ffffff"/><rect x="1032" y="1480" width="64" height="64" fill="#ffffff"/><rect x="1224" y="1480" width="64" height="64" fill="#ffffff"/><rect x="1288" y="1480" width="64" height="64" fill="#ffffff"/><rect x="1352" y="1480" width="64" height="64" fill="#ffffff"/><rect x="1416" y="1480" width="64" height="64" fill="#ffffff"/><rect x="1480" y="1480" width="64" height="64" fill="#ffffff"/><rect x="1544" y="1480" width="64" height="64" fill="#ffffff"/><rect x="712" y="1544" width="64" height="64" fill="#ffffff"/><rect x="776" y="1544" width="64" height="64" fill="#ffffff"/><rect x="968" y="1544" width="64" height="64" fill="#ffffff"/><rect x="1160" y="1544" width="64" height="64" fill="#ffffff"/><rect x="1224" y="1544" width="64" height="64" fill="#ffffff"/><rect x="1352" y="1544" width="64" height="64" fill="#ffffff"/><rect x="1480" y="1544" width="64" height="64" fill="#ffffff"/><rect x="1672" y="1544" width="64" height="64" fill="#ffffff"/><rect x="1736" y="1544" width="64" height="64" fill="#ffffff"/><rect x="712" y="1608" width="64" height="64" fill="#ffffff"/><rect x="968" y="1608" width="64" height="64" fill="#ffffff"/><rect x="1032" y="1608" width="64" height="64" fill="#ffffff"/><rect x="1096" y="1608" width="64" height="64" fill="#ffffff"/><rect x="1480" y="1608" width="64" height="64" fill="#ffffff"/><rect x="1608" y="1608" width="64" height="64" fill="#ffffff"/><rect x="1736" y="1608" width="64" height="64" fill="#ffffff"/><rect x="712" y="1672" width="64" height="64" fill="#ffffff"/><rect x="776" y="1672" width="64" height="64" fill="#ffffff"/><rect x="968" y="1672" width="64" height="64" fill="#ffffff"/><rect x="1224" y="1672" width="64" height="64" fill="#ffffff"/><rect x="1288" y="1672" width="64" height="64" fill="#ffffff"/><rect x="1352" y="1672" width="64" height="64" fill="#ffffff"/><rect x="1416" y="1672" width="64" height="64" fill="#ffffff"/><rect x="1480" y="1672" width="64" height="64" fill="#ffffff"/><rect x="1544" y="1672" width="64" height="64" fill="#ffffff"/><rect x="1672" y="1672" width="64" height="64" fill="#ffffff"/><rect x="712" y="1736" width="64" height="64" fill="#ffffff"/><rect x="776" y="1736" width="64" height="64" fill="#ffffff"/><rect x="840" y="1736" width="64" height="64" fill="#ffffff"/><rect x="1160" y="1736" width="64" height="64" fill="#ffffff"/><rect x="1608" y="1736" width="64" height="64" fill="#ffffff"/><rect x="1672" y="1736" width="64" height="64" fill="#ffffff"/><rect x="1736" y="1736" width="64" height="64" fill="#ffffff"/><svg version="1.0" id="Ebene_1" x="200" y="200" width="448" height="448" viewBox="0 0 699.988 699.986" enable-background="new 0 0 699.988 699.986" xml:space="preserve" shape-rendering="auto">
<g>
	<path fill="#ffffff" d="M67.095,632.884C23.828,589.613,0,532.286,0,471.463V228.524C0,167.693,23.828,110.363,67.1,67.096   C110.362,23.828,167.692,0,228.522,0h471.466v471.463c0,60.821-23.828,118.15-67.094,161.424   c-43.268,43.271-100.598,67.101-161.428,67.101H228.522C167.692,699.983,110.364,676.152,67.095,632.884z M239.231,99.996   c-76.772,0-139.232,62.461-139.232,139.234v221.52c0,76.771,62.46,139.23,139.232,139.23h221.527   c76.77,0,139.229-62.461,139.229-139.23V99.996H239.231z"/>
</g>
</svg>
<svg version="1.0" id="Ebene_1" x="200" y="200" width="448" height="448" viewBox="0 0 699.988 699.986" enable-background="new 0 0 699.988 699.986" xml:space="preserve" shape-rendering="auto">
<path fill="#7ff272" d="M199.997,291.611c0-50.384,41.23-91.614,91.613-91.614H499.99v208.379c0,50.385-41.229,91.613-91.609,91.613  h-116.77c-50.383,0-91.613-41.229-91.613-91.613V291.611L199.997,291.611z"/>
</svg>
<svg version="1.0" id="Ebene_1" x="1352" y="200" width="448" height="448" viewBox="0 0 699.988 699.986" enable-background="new 0 0 699.988 699.986" xml:space="preserve" shape-rendering="auto">
<g>
	<path fill="#ffffff" d="M67.095,632.884C23.828,589.613,0,532.286,0,471.463V228.524C0,167.693,23.828,110.363,67.1,67.096   C110.362,23.828,167.692,0,228.522,0h471.466v471.463c0,60.821-23.828,118.15-67.094,161.424   c-43.268,43.271-100.598,67.101-161.428,67.101H228.522C167.692,699.983,110.364,676.152,67.095,632.884z M239.231,99.996   c-76.772,0-139.232,62.461-139.232,139.234v221.52c0,76.771,62.46,139.23,139.232,139.23h221.527   c76.77,0,139.229-62.461,139.229-139.23V99.996H239.231z"/>
</g>
</svg>
<svg version="1.0" id="Ebene_1" x="1352" y="200" width="448" height="448" viewBox="0 0 699.988 699.986" enable-background="new 0 0 699.988 699.986" xml:space="preserve" shape-rendering="auto">
<path fill="#7ff272" d="M199.997,291.611c0-50.384,41.23-91.614,91.613-91.614H499.99v208.379c0,50.385-41.229,91.613-91.609,91.613  h-116.77c-50.383,0-91.613-41.229-91.613-91.613V291.611L199.997,291.611z"/>
</svg>
<svg version="1.0" id="Ebene_1" x="200" y="1352" width="448" height="448" viewBox="0 0 699.988 699.986" enable-background="new 0 0 699.988 699.986" xml:space="preserve" shape-rendering="auto">
<g>
	<path fill="#ffffff" d="M67.095,632.884C23.828,589.613,0,532.286,0,471.463V228.524C0,167.693,23.828,110.363,67.1,67.096   C110.362,23.828,167.692,0,228.522,0h471.466v471.463c0,60.821-23.828,118.15-67.094,161.424   c-43.268,43.271-100.598,67.101-161.428,67.101H228.522C167.692,699.983,110.364,676.152,67.095,632.884z M239.231,99.996   c-76.772,0-139.232,62.461-139.232,139.234v221.52c0,76.771,62.46,139.23,139.232,139.23h221.527   c76.77,0,139.229-62.461,139.229-139.23V99.996H239.231z"/>
</g>
</svg>
<svg version="1.0" id="Ebene_1" x="200" y="1352" width="448" height="448" viewBox="0 0 699.988 699.986" enable-background="new 0 0 699.988 699.986" xml:space="preserve" shape-rendering="auto">
<path fill="#7ff272" d="M199.997,291.611c0-50.384,41.23-91.614,91.613-91.614H499.99v208.379c0,50.385-41.229,91.613-91.609,91.613  h-116.77c-50.383,0-91.613-41.229-91.613-91.613V291.611L199.997,291.611z"/>
</svg>
</svg>

</svg>
